<svg version="1.1" viewBox="0.0 0.0 960.0 540.0" fill="none" stroke="none" stroke-linecap="square" stroke-miterlimit="10" xmlns:xlink="http://www.w3.org/1999/xlink" xmlns="http://www.w3.org/2000/svg"><clipPath id="g25866e8ac74_0_61.0"><path d="m0 0l960.0 0l0 540.0l-960.0 0l0 -540.0z" clip-rule="nonzero"/></clipPath><g clip-path="url(#g25866e8ac74_0_61.0)"><path fill="#5b0f00" d="m0 0l960.0 0l0 540.0l-960.0 0z" fill-rule="evenodd"/><path fill="#000000" fill-opacity="0.0" d="m32.72441 120.99475l894.55115 0l0 358.67715l-894.55115 0z" fill-rule="evenodd"/><g filter="url(#shadowFilter-g25866e8ac74_0_61.1)"><use xlink:href="#g25866e8ac74_0_61.1" transform="matrix(1.0 0.0 0.0 1.0 0.0 2.0)"/></g><defs><filter id="shadowFilter-g25866e8ac74_0_61.1" filterUnits="userSpaceOnUse"><feGaussianBlur in="SourceAlpha" stdDeviation="2.0" result="blur"/><feComponentTransfer in="blur" color-interpolation-filters="sRGB"><feFuncR type="linear" slope="0" intercept="0.0"/><feFuncG type="linear" slope="0" intercept="0.0"/><feFuncB type="linear" slope="0" intercept="0.0"/><feFuncA type="linear" slope="0.5" intercept="0"/></feComponentTransfer></filter></defs><g id="g25866e8ac74_0_61.1"><path fill="#ffffff" d="m0 63.262466l960.0 0l0 476.72443l-960.0 0z" fill-rule="evenodd"/></g><path fill="#000000" fill-opacity="0.0" d="m0 0l960.0 0l0 63.27559l-960.0 0z" fill-rule="evenodd"/><path fill="#ffffff" d="m222.35059 49.96l13.3125 -29.859375l6.828125 0l13.34375 29.859375l-7.25 0l-10.921875 -26.359375l2.734375 0l-10.953125 26.359375l-7.09375 0zm6.65625 -6.390625l1.84375 -5.25l15.34375 0l1.890625 5.25l-19.078125 0zm34.63443 6.390625l0 -24.234375l-9.546875 0l0 -5.625l26.015625 0l0 5.625l-9.546875 0l0 24.234375l-6.921875 0zm26.788177 0l0 -24.234375l-9.546875 0l0 -5.625l26.015625 0l0 5.625l-9.546875 0l0 24.234375l-6.921875 0zm14.75885 0l13.3125 -29.859375l6.828125 0l13.34375 29.859375l-7.25 0l-10.921875 -26.359375l2.734375 0l-10.953125 26.359375l-7.09375 0zm6.65625 -6.390625l1.84375 -5.25l15.34375 0l1.890625 5.25l-19.078125 0zm43.810455 6.90625q-3.453125 0 -6.421875 -1.125q-2.953125 -1.140625 -5.140625 -3.21875q-2.171875 -2.09375 -3.390625 -4.90625q-1.21875 -2.828125 -1.21875 -6.1875q0 -3.375 1.21875 -6.1875q1.21875 -2.828125 3.40625 -4.90625q2.203125 -2.09375 5.140625 -3.21875q2.953125 -1.140625 6.453125 -1.140625q3.875 0 7.015625 1.34375q3.140625 1.34375 5.265625 3.953125l-4.4375 4.09375q-1.53125 -1.75 -3.40625 -2.625q-1.875 -0.875 -4.09375 -0.875q-2.09375 0 -3.84375 0.6875q-1.75 0.671875 -3.03125 1.953125q-1.28125 1.28125 -1.984375 3.03125q-0.703125 1.75 -0.703125 3.890625q0 2.125 0.703125 3.875q0.703125 1.75 1.984375 3.03125q1.28125 1.28125 3.03125 1.96875q1.75 0.671875 3.84375 0.671875q2.21875 0 4.09375 -0.875q1.875 -0.875 3.40625 -2.671875l4.4375 4.109375q-2.125 2.59375 -5.265625 3.96875q-3.140625 1.359375 -7.0625 1.359375zm23.157623 -7.34375l-0.375 -7.96875l14.28125 -15.0625l7.6875 0l-12.890625 13.859375l-3.828125 4.09375l-4.875 5.078125zm-6.171875 6.828125l0 -29.859375l6.859375 0l0 29.859375l-6.859375 0zm20.421875 0l-10.625 -13.015625l4.53125 -4.90625l14.15625 17.921875l-8.0625 0zm11.143677 0l0 -29.859375l6.90625 0l0 29.859375l-6.90625 0zm13.991241 0l0 -29.859375l5.703125 0l17.625 21.5l-2.78125 0l0 -21.5l6.828125 0l0 29.859375l-5.671875 0l-17.65625 -21.5l2.765625 0l0 21.5l-6.8125 0zm48.872467 0.515625q-3.53125 0 -6.5 -1.125q-2.96875 -1.140625 -5.171875 -3.21875q-2.1875 -2.09375 -3.40625 -4.90625q-1.21875 -2.828125 -1.21875 -6.1875q0 -3.375 1.21875 -6.1875q1.21875 -2.828125 3.4375 -4.90625q2.21875 -2.09375 5.203125 -3.21875q2.984375 -1.140625 6.578125 -1.140625q3.953125 0 7.125 1.328125q3.1875 1.328125 5.359375 3.84375l-4.4375 4.09375q-1.609375 -1.71875 -3.53125 -2.546875q-1.921875 -0.828125 -4.1875 -0.828125q-2.171875 0 -3.96875 0.6875q-1.78125 0.671875 -3.09375 1.953125q-1.296875 1.28125 -2.0 3.03125q-0.703125 1.75 -0.703125 3.890625q0 2.078125 0.703125 3.828125q0.703125 1.75 2.0 3.0625q1.3125 1.296875 3.078125 1.984375q1.765625 0.671875 3.90625 0.671875q2.046875 0 3.984375 -0.65625q1.9375 -0.671875 3.78125 -2.25l3.921875 5.0q-2.4375 1.828125 -5.65625 2.8125q-3.21875 0.984375 -6.421875 0.984375zm5.765625 -4.703125l0 -11.21875l6.3125 0l0 12.125l-6.3125 -0.90625zm20.85022 4.1875l13.3125 -29.859375l6.828125 0l13.34375 29.859375l-7.25 0l-10.921875 -26.359375l2.734375 0l-10.953125 26.359375l-7.09375 0zm6.65625 -6.390625l1.84375 -5.25l15.34375 0l1.890625 5.25l-19.078125 0zm37.28766 6.390625l-12.890625 -29.859375l7.46875 0l11.265625 26.453125l-4.390625 0l11.421875 -26.453125l6.875 0l-12.921875 29.859375l-6.828125 0zm28.572144 -17.828125l14.375 0l0 5.375l-14.375 0l0 -5.375zm0.515625 12.28125l16.25 0l0 5.546875l-23.109375 0l0 -29.859375l22.5625 0l0 5.546875l-15.703125 0l0 18.765625zm21.76294 5.546875l0 -29.859375l12.921875 0q4.0 0 6.90625 1.3125q2.90625 1.296875 4.484375 3.734375q1.578125 2.421875 1.578125 5.78125q0 3.328125 -1.578125 5.75q-1.578125 2.40625 -4.484375 3.6875q-2.90625 1.28125 -6.90625 1.28125l-9.09375 0l3.078125 -3.03125l0 11.34375l-6.90625 0zm18.96875 0l-7.453125 -10.828125l7.375 0l7.546875 10.828125l-7.46875 0zm-12.0625 -10.578125l-3.078125 -3.25l8.703125 0q3.203125 0 4.78125 -1.375q1.578125 -1.390625 1.578125 -3.828125q0 -2.46875 -1.578125 -3.828125q-1.578125 -1.375 -4.78125 -1.375l-8.703125 0l3.078125 -3.28125l0 16.9375zm20.508545 10.578125l13.3125 -29.859375l6.828125 0l13.34375 29.859375l-7.25 0l-10.921875 -26.359375l2.734375 0l-10.953125 26.359375l-7.09375 0zm6.65625 -6.390625l1.84375 -5.25l15.34375 0l1.890625 5.25l-19.078125 0zm43.935486 6.90625q-3.53125 0 -6.5 -1.125q-2.96875 -1.140625 -5.171875 -3.21875q-2.1875 -2.09375 -3.40625 -4.90625q-1.21875 -2.828125 -1.21875 -6.1875q0 -3.375 1.21875 -6.1875q1.21875 -2.828125 3.4375 -4.90625q2.21875 -2.09375 5.203125 -3.21875q2.984375 -1.140625 6.578125 -1.140625q3.953125 0 7.125 1.328125q3.1875 1.328125 5.359375 3.84375l-4.4375 4.09375q-1.609375 -1.71875 -3.53125 -2.546875q-1.921875 -0.828125 -4.1875 -0.828125q-2.171875 0 -3.96875 0.6875q-1.78125 0.671875 -3.09375 1.953125q-1.296875 1.28125 -2.0 3.03125q-0.703125 1.75 -0.703125 3.890625q0 2.078125 0.703125 3.828125q0.703125 1.75 2.0 3.0625q1.3125 1.296875 3.078125 1.984375q1.765625 0.671875 3.90625 0.671875q2.046875 0 3.984375 -0.65625q1.9375 -0.671875 3.78125 -2.25l3.921875 5.0q-2.4375 1.828125 -5.65625 2.8125q-3.21875 0.984375 -6.421875 0.984375zm5.765625 -4.703125l0 -11.21875l6.3125 0l0 12.125l-6.3125 -0.90625zm19.059814 -13.640625l14.375 0l0 5.375l-14.375 0l0 -5.375zm0.515625 12.28125l16.25 0l0 5.546875l-23.109375 0l0 -29.859375l22.5625 0l0 5.546875l-15.703125 0l0 18.765625zm31.559814 6.0625q-3.578125 0 -6.859375 -0.953125q-3.28125 -0.96875 -5.296875 -2.5l2.359375 -5.203125q1.90625 1.359375 4.53125 2.234375q2.625 0.875 5.3125 0.875q2.046875 0 3.296875 -0.40625q1.265625 -0.40625 1.859375 -1.125q0.609375 -0.734375 0.609375 -1.671875q0 -1.1875 -0.9375 -1.890625q-0.9375 -0.703125 -2.484375 -1.15625q-1.53125 -0.453125 -3.390625 -0.859375q-1.84375 -0.40625 -3.703125 -1.0q-1.859375 -0.59375 -3.390625 -1.53125q-1.53125 -0.9375 -2.5 -2.46875q-0.953125 -1.546875 -0.953125 -3.9375q0 -2.546875 1.375 -4.65625q1.390625 -2.125 4.1875 -3.375q2.796875 -1.265625 7.015625 -1.265625q2.8125 0 5.546875 0.671875q2.734375 0.65625 4.8125 1.984375l-2.125 5.234375q-2.09375 -1.1875 -4.1875 -1.765625q-2.078125 -0.578125 -4.09375 -0.578125q-2.0 0 -3.28125 0.46875q-1.28125 0.46875 -1.84375 1.21875q-0.546875 0.75 -0.546875 1.734375q0 1.140625 0.9375 1.84375q0.9375 0.703125 2.46875 1.140625q1.546875 0.421875 3.390625 0.859375q1.859375 0.421875 3.71875 0.984375q1.859375 0.546875 3.390625 1.484375q1.53125 0.9375 2.484375 2.46875q0.96875 1.53125 0.96875 3.875q0 2.515625 -1.40625 4.609375q-1.40625 2.09375 -4.203125 3.375q-2.796875 1.28125 -7.0625 1.28125z" fill-rule="nonzero"/><path fill="#000000" fill-opacity="0.0" d="m45.716534 61.97113l868.5669 0l0 476.72443l-868.5669 0z" fill-rule="evenodd"/><path fill="#cc0000" d="m63.20091 222.2977q-2.84375 0 -5.234375 -1.0625q-2.375 -1.0625 -3.890625 -3.015625l3.59375 -4.328125q1.171875 1.515625 2.453125 2.296875q1.28125 0.78125 2.75 0.78125q3.9687538 0 3.9687538 -4.640625l0 -13.3125l-9.843754 0l0 -5.203125l16.281254 0l0 18.15625q0 5.203125 -2.5625 7.765625q-2.5625 2.5625 -7.515629 2.5625zm26.280613 -0.171875q-3.4375 0 -6.109375 -1.4375q-2.65625 -1.4375 -4.203125 -3.9375q-1.53125 -2.5 -1.53125 -5.703125q0 -3.234375 1.53125 -5.734375q1.546875 -2.5 4.203125 -3.921875q2.671875 -1.421875 6.109375 -1.421875q3.390625 0 6.0625 1.421875q2.6875 1.421875 4.203125 3.90625q1.53125 2.46875 1.53125 5.75q0 3.203125 -1.53125 5.703125q-1.515625 2.5 -4.203125 3.9375q-2.671875 1.4375 -6.0625 1.4375zm0 -5.109375q1.5625 0 2.796875 -0.71875q1.234375 -0.71875 1.953125 -2.0625q0.71875 -1.34375 0.71875 -3.1875q0 -1.875 -0.71875 -3.1875q-0.71875 -1.328125 -1.953125 -2.046875q-1.234375 -0.71875 -2.796875 -0.71875q-1.5625 0 -2.8125 0.71875q-1.234375 0.71875 -1.984375 2.046875q-0.734375 1.3125 -0.734375 3.1875q0 1.84375 0.734375 3.1875q0.75 1.34375 1.984375 2.0625q1.25 0.71875 2.8125 0.71875zm24.762482 5.109375q-3.8125 0 -5.9375 -1.9375q-2.109375 -1.9375 -2.109375 -5.78125l0 -18.875l6.234375 0l0 18.796875q0 1.359375 0.71875 2.109375q0.71875 0.734375 1.96875 0.734375q1.484375 0 2.515625 -0.796875l1.6875 4.390625q-0.96875 0.6875 -2.3125 1.03125q-1.328125 0.328125 -2.765625 0.328125zm-11.375 -16.546875l0 -4.8125l14.921875 0l0 4.8125l-14.921875 0zm33.165604 16.234375l0 -4.203125l-0.390625 -0.921875l0 -7.515625q0 -2.0 -1.234375 -3.109375q-1.21875 -1.125 -3.734375 -1.125q-1.71875 0 -3.375 0.546875q-1.65625 0.53125 -2.828125 1.453125l-2.234375 -4.359375q1.765625 -1.25 4.234375 -1.921875q2.484375 -0.6875 5.046875 -0.6875q4.921875 0 7.640625 2.328125q2.71875 2.3125 2.71875 7.234375l0 12.28125l-5.84375 0zm-6.5625 0.3125q-2.515625 0 -4.3125 -0.859375q-1.796875 -0.859375 -2.765625 -2.328125q-0.953125 -1.484375 -0.953125 -3.328125q0 -1.921875 0.9375 -3.359375q0.9375 -1.4375 2.96875 -2.25q2.046875 -0.828125 5.328125 -0.828125l5.71875 0l0 3.640625l-5.03125 0q-2.203125 0 -3.03125 0.71875q-0.8125 0.71875 -0.8125 1.796875q0 1.203125 0.9375 1.90625q0.9375 0.703125 2.578125 0.703125q1.5625 0 2.796875 -0.734375q1.25 -0.75 1.8125 -2.1875l0.953125 2.875q-0.6875 2.078125 -2.484375 3.15625q-1.796875 1.078125 -4.640625 1.078125z" fill-rule="nonzero"/><path fill="#cc0000" d="m500.79465 222.2977q-3.84375 0 -6.671875 -1.59375q-2.8125 -1.609375 -4.328125 -4.6875q-1.515625 -3.078125 -1.515625 -7.609375q0 -4.828125 1.8125 -8.1875q1.828125 -3.359375 5.046875 -5.125q3.21875 -1.765625 7.421875 -1.765625q2.234375 0 4.265625 0.484375q2.046875 0.484375 3.53125 1.4375l-2.40625 4.765625q-1.15625 -0.796875 -2.484375 -1.09375q-1.3125 -0.3125 -2.75 -0.3125q-3.640625 0 -5.765625 2.203125q-2.109375 2.203125 -2.109375 6.515625q0 0.71875 0.015625 1.609375q0.015625 0.875 0.21875 1.75l-1.796875 -1.671875q0.75 -1.5625 1.953125 -2.625q1.203125 -1.0625 2.859375 -1.59375q1.671875 -0.546875 3.671875 -0.546875q2.71875 0 4.875 1.078125q2.15625 1.078125 3.453125 3.046875q1.3125 1.953125 1.3125 4.59375q0 2.84375 -1.421875 4.953125q-1.421875 2.09375 -3.8125 3.234375q-2.375 1.140625 -5.375 1.140625zm-0.359375 -4.84375q1.359375 0 2.421875 -0.5q1.0625 -0.5 1.65625 -1.453125q0.609375 -0.96875 0.609375 -2.203125q0 -1.921875 -1.3125 -3.0625q-1.296875 -1.140625 -3.453125 -1.140625q-1.4375 0 -2.515625 0.546875q-1.078125 0.53125 -1.703125 1.46875q-0.625 0.9375 -0.625 2.1875q0 1.203125 0.59375 2.140625q0.609375 0.9375 1.6875 1.484375q1.078125 0.53125 2.640625 0.53125zm17.3956 4.671875q-1.59375 0 -2.734375 -1.09375q-1.140625 -1.09375 -1.140625 -2.8125q0 -1.71875 1.140625 -2.78125q1.140625 -1.0625 2.734375 -1.0625q1.640625 0 2.765625 1.0625q1.125 1.0625 1.125 2.78125q0 1.71875 -1.125 2.8125q-1.125 1.09375 -2.765625 1.09375zm10.652527 -0.3125l11.265625 -25.515625l1.6875 2.796875l-15.078125 0l2.875 -3.046875l0 7.609375l-5.75 0l0 -9.84375l22.4375 0l0 4.203125l-10.40625 23.796875l-7.03125 0zm32.03125 0.484375q-3.843811 0 -6.671936 -1.59375q-2.8125 -1.609375 -4.328125 -4.6875q-1.515625 -3.078125 -1.515625 -7.609375q0 -4.828125 1.8125 -8.1875q1.828125 -3.359375 5.046875 -5.125q3.218811 -1.765625 7.421936 -1.765625q2.234375 0 4.265625 0.484375q2.046875 0.484375 3.53125 1.4375l-2.40625 4.765625q-1.15625 -0.796875 -2.484375 -1.09375q-1.3125 -0.3125 -2.75 -0.3125q-3.640625 0 -5.765686 2.203125q-2.109375 2.203125 -2.109375 6.515625q0 0.71875 0.015625 1.609375q0.015625 0.875 0.21875 1.75l-1.796875 -1.671875q0.75 -1.5625 1.953125 -2.625q1.203125 -1.0625 2.859436 -1.59375q1.671875 -0.546875 3.671875 -0.546875q2.71875 0 4.875 1.078125q2.15625 1.078125 3.453125 3.046875q1.3125 1.953125 1.3125 4.59375q0 2.84375 -1.421875 4.953125q-1.421875 2.09375 -3.8125 3.234375q-2.375 1.140625 -5.375 1.140625zm-0.359375 -4.84375q1.359375 0 2.421875 -0.5q1.0625 -0.5 1.65625 -1.453125q0.609375 -0.96875 0.609375 -2.203125q0 -1.921875 -1.3125 -3.0625q-1.296875 -1.140625 -3.453125 -1.140625q-1.4375 0 -2.515686 0.546875q-1.078125 0.53125 -1.703125 1.46875q-0.625 0.9375 -0.625 2.1875q0 1.203125 0.59375 2.140625q0.609375 0.9375 1.6875 1.484375q1.078186 0.53125 2.640686 0.53125z" fill-rule="nonzero"/><path fill="#cc0000" d="m737.3572 222.2977q-2.921875 0 -5.8125 -0.78125q-2.875 -0.78125 -4.875 -2.21875l2.53125 -4.96875q1.59375 1.171875 3.703125 1.859375q2.125 0.671875 4.296875 0.671875q2.4375 0 3.828125 -0.953125q1.40625 -0.96875 1.40625 -2.65625q0 -1.59375 -1.25 -2.515625q-1.234375 -0.921875 -3.984375 -0.921875l-2.96875 0l0 -4.28125l7.796875 -8.84375l0.734375 2.328125l-14.6875 0l0 -5.203125l19.59375 0l0 4.203125l-7.75 8.84375l-3.28125 -1.890625l1.875 0q5.15625 0 7.796875 2.328125q2.640625 2.3125 2.640625 5.953125q0 2.359375 -1.234375 4.421875q-1.234375 2.0625 -3.796875 3.34375q-2.5625 1.28125 -6.5625 1.28125zm18.914368 -0.484375l0 -25.59375l2.8125 2.796875l-8.40625 0l0 -5.203125l12.078125 0l0 28.0l-6.484375 0zm20.765564 0l12.484375 -28.0l6.390625 0l12.53125 28.0l-6.8125 0l-10.234375 -24.71875l2.5625 0l-10.28125 24.71875l-6.640625 0zm6.234375 -6.0l1.71875 -4.921875l14.40625 0l1.765625 4.921875l-17.890625 0zm40.358765 6.3125q-2.71875 0 -4.765625 -1.1875q-2.03125 -1.203125 -3.171875 -3.65625q-1.140625 -2.46875 -1.140625 -6.234375q0 -3.796875 1.078125 -6.234375q1.09375 -2.4375 3.125 -3.640625q2.046875 -1.203125 4.875 -1.203125q3.046875 0 5.46875 1.390625q2.421875 1.375 3.828125 3.859375q1.421875 2.46875 1.421875 5.828125q0 3.40625 -1.421875 5.890625q-1.40625 2.46875 -3.828125 3.828125q-2.421875 1.359375 -5.46875 1.359375zm-12.71875 7.453125l0 -29.28125l5.96875 0l0 4.390625l-0.125 6.40625l0.40625 6.359375l0 12.125l-6.25 0zm11.640625 -12.5625q1.5625 0 2.78125 -0.71875q1.21875 -0.71875 1.953125 -2.0625q0.75 -1.34375 0.75 -3.1875q0 -1.875 -0.75 -3.1875q-0.734375 -1.328125 -1.953125 -2.046875q-1.21875 -0.71875 -2.78125 -0.71875q-1.5625 0 -2.796875 0.71875q-1.234375 0.71875 -1.953125 2.046875q-0.71875 1.3125 -0.71875 3.1875q0 1.84375 0.71875 3.1875q0.71875 1.34375 1.953125 2.0625q1.234375 0.71875 2.796875 0.71875zm28.6781 5.109375q-2.71875 0 -4.765625 -1.1875q-2.03125 -1.203125 -3.171875 -3.65625q-1.140625 -2.46875 -1.140625 -6.234375q0 -3.796875 1.078125 -6.234375q1.09375 -2.4375 3.125 -3.640625q2.046875 -1.203125 4.875 -1.203125q3.046875 0 5.46875 1.390625q2.421875 1.375 3.828125 3.859375q1.421875 2.46875 1.421875 5.828125q0 3.40625 -1.421875 5.890625q-1.40625 2.46875 -3.828125 3.828125q-2.421875 1.359375 -5.46875 1.359375zm-12.71875 7.453125l0 -29.28125l5.96875 0l0 4.390625l-0.125 6.40625l0.40625 6.359375l0 12.125l-6.25 0zm11.640625 -12.5625q1.5625 0 2.78125 -0.71875q1.21875 -0.71875 1.953125 -2.0625q0.75 -1.34375 0.75 -3.1875q0 -1.875 -0.75 -3.1875q-0.734375 -1.328125 -1.953125 -2.046875q-1.21875 -0.71875 -2.78125 -0.71875q-1.5625 0 -2.796875 0.71875q-1.234375 0.71875 -1.953125 2.046875q-0.71875 1.3125 -0.71875 3.1875q0 1.84375 0.71875 3.1875q0.71875 1.34375 1.953125 2.0625q1.234375 0.71875 2.796875 0.71875zm23.20935 5.109375q-2.765625 0 -5.3125 -0.65625q-2.53125 -0.65625 -4.015625 -1.65625l2.078125 -4.484375q1.484375 0.921875 3.5 1.5q2.03125 0.578125 3.984375 0.578125q2.15625 0 3.046875 -0.515625q0.90625 -0.515625 0.90625 -1.4375q0 -0.765625 -0.703125 -1.140625q-0.6875 -0.375 -1.859375 -0.578125q-1.15625 -0.203125 -2.53125 -0.40625q-1.375 -0.203125 -2.78125 -0.53125q-1.390625 -0.34375 -2.5625 -1.015625q-1.15625 -0.6875 -1.859375 -1.84375q-0.703125 -1.171875 -0.703125 -3.0q0 -2.046875 1.1875 -3.609375q1.1875 -1.5625 3.421875 -2.453125q2.234375 -0.90625 5.359375 -0.90625q2.203125 0 4.484375 0.484375q2.28125 0.484375 3.796875 1.40625l-2.078125 4.4375q-1.5625 -0.921875 -3.140625 -1.265625q-1.578125 -0.34375 -3.0625 -0.34375q-2.078125 0 -3.046875 0.5625q-0.953125 0.5625 -0.953125 1.4375q0 0.8125 0.703125 1.21875q0.703125 0.390625 1.859375 0.625q1.15625 0.234375 2.53125 0.421875q1.390625 0.171875 2.78125 0.546875q1.40625 0.359375 2.546875 1.015625q1.140625 0.65625 1.859375 1.796875q0.71875 1.140625 0.71875 2.984375q0 2.0 -1.203125 3.546875q-1.203125 1.53125 -3.46875 2.40625q-2.25 0.875 -5.484375 0.875z" fill-rule="nonzero"/><path fill="#990000" d="m58.029034 267.81332l0 -28.0l12.734379 0q4.546875 0 8.03125 1.75q3.484375 1.734375 5.4375 4.859375q1.96875 3.109375 1.96875 7.390625q0 4.234375 -1.96875 7.375q-1.953125 3.140625 -5.4375 4.890625q-3.484375 1.734375 -8.03125 1.734375l-12.734379 0zm6.484379 -5.3125l5.921875 0q2.796875 0 4.859375 -1.0625q2.0625 -1.0625 3.203125 -3.015625q1.140625 -1.96875 1.140625 -4.609375q0 -2.6875 -1.140625 -4.625q-1.140625 -1.9375 -3.203125 -3.0q-2.0625 -1.0625 -4.859375 -1.0625l-5.921875 0l0 17.375zm26.118088 5.3125l0 -21.515625l6.25 0l0 21.515625l-6.25 0zm3.125 -24.515625q-1.71875 0 -2.796875 -1.0q-1.078125 -1.0 -1.078125 -2.484375q0 -1.484375 1.078125 -2.484375q1.078125 -1.0 2.796875 -1.0q1.71875 0 2.796875 0.953125q1.078125 0.9375 1.078125 2.40625q0 1.5625 -1.0625 2.59375q-1.046875 1.015625 -2.8125 1.015625zm22.118118 24.515625l0 -4.203125l-0.390625 -0.921875l0 -7.515625q0 -2.0 -1.234375 -3.109375q-1.21875 -1.125 -3.734375 -1.125q-1.71875 0 -3.375 0.546875q-1.65625 0.53125 -2.828125 1.453125l-2.234375 -4.359375q1.765625 -1.25 4.234375 -1.921875q2.484375 -0.6875 5.046875 -0.6875q4.921875 0 7.640625 2.328125q2.71875 2.3125 2.71875 7.234375l0 12.28125l-5.84375 0zm-6.5625 0.3125q-2.515625 0 -4.3125 -0.859375q-1.796875 -0.859375 -2.765625 -2.328125q-0.953125 -1.484375 -0.953125 -3.328125q0 -1.921875 0.9375 -3.359375q0.9375 -1.4375 2.96875 -2.25q2.046875 -0.828125 5.328125 -0.828125l5.71875 0l0 3.640625l-5.03125 0q-2.203125 0 -3.03125 0.71875q-0.8125 0.71875 -0.8125 1.796875q0 1.203125 0.9375 1.90625q0.9375 0.703125 2.578125 0.703125q1.5625 0 2.796875 -0.734375q1.25 -0.75 1.8125 -2.1875l0.953125 2.875q-0.6875 2.078125 -2.484375 3.15625q-1.796875 1.078125 -4.640625 1.078125zm16.570602 -0.3125l0 -3.765625l12.71875 -15.03125l1.078125 2.078125l-13.515625 0l0 -4.796875l18.546875 0l0 3.75l-12.71875 15.046875l-1.109375 -2.078125l14.1875 0l0 4.796875l-19.1875 0z" fill-rule="nonzero"/><path fill="#990000" d="m500.79465 268.2977q-3.84375 0 -6.671875 -1.59375q-2.8125 -1.609375 -4.328125 -4.6875q-1.515625 -3.078125 -1.515625 -7.609375q0 -4.828125 1.8125 -8.1875q1.828125 -3.359375 5.046875 -5.125q3.21875 -1.765625 7.421875 -1.765625q2.234375 0 4.265625 0.484375q2.046875 0.484375 3.53125 1.4375l-2.40625 4.765625q-1.15625 -0.796875 -2.484375 -1.09375q-1.3125 -0.3125 -2.75 -0.3125q-3.640625 0 -5.765625 2.203125q-2.109375 2.203125 -2.109375 6.515625q0 0.71875 0.015625 1.609375q0.015625 0.875 0.21875 1.75l-1.796875 -1.671875q0.75 -1.5625 1.953125 -2.625q1.203125 -1.0625 2.859375 -1.59375q1.671875 -0.546875 3.671875 -0.546875q2.71875 0 4.875 1.078125q2.15625 1.078125 3.453125 3.046875q1.3125 1.953125 1.3125 4.59375q0 2.84375 -1.421875 4.953125q-1.421875 2.09375 -3.8125 3.234375q-2.375 1.140625 -5.375 1.140625zm-0.359375 -4.84375q1.359375 0 2.421875 -0.5q1.0625 -0.5 1.65625 -1.453125q0.609375 -0.96875 0.609375 -2.203125q0 -1.921875 -1.3125 -3.0625q-1.296875 -1.140625 -3.453125 -1.140625q-1.4375 0 -2.515625 0.546875q-1.078125 0.53125 -1.703125 1.46875q-0.625 0.9375 -0.625 2.1875q0 1.203125 0.59375 2.140625q0.609375 0.9375 1.6875 1.484375q1.078125 0.53125 2.640625 0.53125zm17.3956 4.671875q-1.59375 0 -2.734375 -1.09375q-1.140625 -1.09375 -1.140625 -2.8125q0 -1.71875 1.140625 -2.78125q1.140625 -1.0625 2.734375 -1.0625q1.640625 0 2.765625 1.0625q1.125 1.0625 1.125 2.78125q0 1.71875 -1.125 2.8125q-1.125 1.09375 -2.765625 1.09375zm16.323792 0.171875q-2.921875 0 -5.78125 -0.78125q-2.859375 -0.78125 -4.890625 -2.21875l2.546875 -4.96875q1.609375 1.171875 3.703125 1.859375q2.109375 0.671875 4.265625 0.671875q2.4375 0 3.828125 -0.953125q1.40625 -0.96875 1.40625 -2.6875q0 -1.09375 -0.5625 -1.921875q-0.546875 -0.84375 -1.96875 -1.28125q-1.421875 -0.4375 -3.984375 -0.4375l-7.15625 0l1.4375 -15.765625l17.078125 0l0 5.203125l-14.765625 0l3.359375 -2.96875l-1.0 11.25l-3.359375 -2.96875l5.921875 0q4.15625 0 6.703125 1.140625q2.546875 1.140625 3.703125 3.109375q1.15625 1.953125 1.15625 4.4375q0 2.484375 -1.25 4.578125q-1.234375 2.09375 -3.8125 3.40625q-2.578125 1.296875 -6.578125 1.296875zm23.162476 0q-2.921875 0 -5.8125 -0.78125q-2.875 -0.78125 -4.875 -2.21875l2.53125 -4.96875q1.59375 1.171875 3.703125 1.859375q2.125 0.671875 4.296875 0.671875q2.4375 0 3.828125 -0.953125q1.40625 -0.96875 1.40625 -2.65625q0 -1.59375 -1.25 -2.515625q-1.234375 -0.921875 -3.984375 -0.921875l-2.96875 0l0 -4.28125l7.796875 -8.84375l0.734375 2.328125l-14.6875 0l0 -5.203125l19.59375 0l0 4.203125l-7.75 8.84375l-3.28125 -1.890625l1.875 0q5.15625 0 7.796875 2.328125q2.640625 2.3125 2.640625 5.953125q0 2.359375 -1.234375 4.421875q-1.234375 2.0625 -3.796875 3.34375q-2.5625 1.28125 -6.5625 1.28125z" fill-rule="nonzero"/><path fill="#990000" d="m737.7947 268.2977q-2.921875 0 -5.78125 -0.78125q-2.859375 -0.78125 -4.890625 -2.21875l2.546875 -4.96875q1.609375 1.171875 3.703125 1.859375q2.109375 0.671875 4.265625 0.671875q2.4375 0 3.828125 -0.953125q1.40625 -0.96875 1.40625 -2.6875q0 -1.09375 -0.5625 -1.921875q-0.546875 -0.84375 -1.96875 -1.28125q-1.421875 -0.4375 -3.984375 -0.4375l-7.15625 0l1.4375 -15.765625l17.078125 0l0 5.203125l-14.765625 0l3.359375 -2.96875l-1.0 11.25l-3.359375 -2.96875l5.921875 0q4.15625 0 6.703125 1.140625q2.546875 1.140625 3.703125 3.109375q1.15625 1.953125 1.15625 4.4375q0 2.484375 -1.25 4.578125q-1.234375 2.09375 -3.8125 3.40625q-2.578125 1.296875 -6.578125 1.296875zm26.284363 0q-3.4375 0 -6.15625 -1.703125q-2.71875 -1.703125 -4.28125 -4.9375q-1.5625 -3.25 -1.5625 -7.84375q0 -4.59375 1.5625 -7.828125q1.5625 -3.25 4.28125 -4.953125q2.71875 -1.703125 6.15625 -1.703125q3.484375 0 6.171875 1.703125q2.703125 1.703125 4.265625 4.953125q1.5625 3.234375 1.5625 7.828125q0 4.59375 -1.5625 7.84375q-1.5625 3.234375 -4.265625 4.9375q-2.6875 1.703125 -6.171875 1.703125zm0 -5.484375q1.640625 0 2.859375 -0.921875q1.21875 -0.921875 1.921875 -2.921875q0.703125 -2.0 0.703125 -5.15625q0 -3.15625 -0.703125 -5.15625q-0.703125 -2.0 -1.921875 -2.921875q-1.21875 -0.921875 -2.859375 -0.921875q-1.609375 0 -2.828125 0.921875q-1.21875 0.921875 -1.921875 2.921875q-0.6875 2.0 -0.6875 5.15625q0 3.15625 0.6875 5.15625q0.703125 2.0 1.921875 2.921875q1.21875 0.921875 2.828125 0.921875zm24.558044 5.0l12.484375 -28.0l6.390625 0l12.53125 28.0l-6.8125 0l-10.234375 -24.71875l2.5625 0l-10.28125 24.71875l-6.640625 0zm6.234375 -6.0l1.71875 -4.921875l14.40625 0l1.765625 4.921875l-17.890625 0zm40.358765 6.3125q-2.71875 0 -4.765625 -1.1875q-2.03125 -1.203125 -3.171875 -3.65625q-1.140625 -2.46875 -1.140625 -6.234375q0 -3.796875 1.078125 -6.234375q1.09375 -2.4375 3.125 -3.640625q2.046875 -1.203125 4.875 -1.203125q3.046875 0 5.46875 1.390625q2.421875 1.375 3.828125 3.859375q1.421875 2.46875 1.421875 5.828125q0 3.40625 -1.421875 5.890625q-1.40625 2.46875 -3.828125 3.828125q-2.421875 1.359375 -5.46875 1.359375zm-12.71875 7.453125l0 -29.28125l5.96875 0l0 4.390625l-0.125 6.40625l0.40625 6.359375l0 12.125l-6.25 0zm11.640625 -12.5625q1.5625 0 2.78125 -0.71875q1.21875 -0.71875 1.953125 -2.0625q0.75 -1.34375 0.75 -3.1875q0 -1.875 -0.75 -3.1875q-0.734375 -1.328125 -1.953125 -2.046875q-1.21875 -0.71875 -2.78125 -0.71875q-1.5625 0 -2.796875 0.71875q-1.234375 0.71875 -1.953125 2.046875q-0.71875 1.3125 -0.71875 3.1875q0 1.84375 0.71875 3.1875q0.71875 1.34375 1.953125 2.0625q1.234375 0.71875 2.796875 0.71875zm28.6781 5.109375q-2.71875 0 -4.765625 -1.1875q-2.03125 -1.203125 -3.171875 -3.65625q-1.140625 -2.46875 -1.140625 -6.234375q0 -3.796875 1.078125 -6.234375q1.09375 -2.4375 3.125 -3.640625q2.046875 -1.203125 4.875 -1.203125q3.046875 0 5.46875 1.390625q2.421875 1.375 3.828125 3.859375q1.421875 2.46875 1.421875 5.828125q0 3.40625 -1.421875 5.890625q-1.40625 2.46875 -3.828125 3.828125q-2.421875 1.359375 -5.46875 1.359375zm-12.71875 7.453125l0 -29.28125l5.96875 0l0 4.390625l-0.125 6.40625l0.40625 6.359375l0 12.125l-6.25 0zm11.640625 -12.5625q1.5625 0 2.78125 -0.71875q1.21875 -0.71875 1.953125 -2.0625q0.75 -1.34375 0.75 -3.1875q0 -1.875 -0.75 -3.1875q-0.734375 -1.328125 -1.953125 -2.046875q-1.21875 -0.71875 -2.78125 -0.71875q-1.5625 0 -2.796875 0.71875q-1.234375 0.71875 -1.953125 2.046875q-0.71875 1.3125 -0.71875 3.1875q0 1.84375 0.71875 3.1875q0.71875 1.34375 1.953125 2.0625q1.234375 0.71875 2.796875 0.71875zm23.20935 5.109375q-2.765625 0 -5.3125 -0.65625q-2.53125 -0.65625 -4.015625 -1.65625l2.078125 -4.484375q1.484375 0.921875 3.5 1.5q2.03125 0.578125 3.984375 0.578125q2.15625 0 3.046875 -0.515625q0.90625 -0.515625 0.90625 -1.4375q0 -0.765625 -0.703125 -1.140625q-0.6875 -0.375 -1.859375 -0.578125q-1.15625 -0.203125 -2.53125 -0.40625q-1.375 -0.203125 -2.78125 -0.53125q-1.390625 -0.34375 -2.5625 -1.015625q-1.15625 -0.6875 -1.859375 -1.84375q-0.703125 -1.171875 -0.703125 -3.0q0 -2.046875 1.1875 -3.609375q1.1875 -1.5625 3.421875 -2.453125q2.234375 -0.90625 5.359375 -0.90625q2.203125 0 4.484375 0.484375q2.28125 0.484375 3.796875 1.40625l-2.078125 4.4375q-1.5625 -0.921875 -3.140625 -1.265625q-1.578125 -0.34375 -3.0625 -0.34375q-2.078125 0 -3.046875 0.5625q-0.953125 0.5625 -0.953125 1.4375q0 0.8125 0.703125 1.21875q0.703125 0.390625 1.859375 0.625q1.15625 0.234375 2.53125 0.421875q1.390625 0.171875 2.78125 0.546875q1.40625 0.359375 2.546875 1.015625q1.140625 0.65625 1.859375 1.796875q0.71875 1.140625 0.71875 2.984375q0 2.0 -1.203125 3.546875q-1.203125 1.53125 -3.46875 2.40625q-2.25 0.875 -5.484375 0.875z" fill-rule="nonzero"/><path fill="#990000" d="m67.23216 314.2977q-3.3593788 0 -6.437504 -0.890625q-3.078125 -0.90625 -4.953125 -2.359375l2.1875 -4.875q1.8125 1.28125 4.265625 2.109375q2.4687538 0.8125 4.984379 0.8125q1.921875 0 3.09375 -0.375q1.1875 -0.390625 1.734375 -1.0625q0.5625 -0.6875 0.5625 -1.5625q0 -1.125 -0.875 -1.78125q-0.875 -0.65625 -2.328125 -1.078125q-1.4375 -0.421875 -3.171875 -0.796875q-1.734375 -0.390625 -3.4843788 -0.9375q-1.734375 -0.5625 -3.171875 -1.4375q-1.4375 -0.890625 -2.34375 -2.328125q-0.890625 -1.4375 -0.890625 -3.6875q0 -2.390625 1.296875 -4.375q1.296875 -1.984375 3.90625 -3.15625q2.6250038 -1.1875 6.593754 -1.1875q2.640625 0 5.1875 0.625q2.5625 0.625 4.53125 1.859375l-2.0 4.921875q-1.96875 -1.125 -3.9375 -1.65625q-1.953125 -0.546875 -3.828125 -0.546875q-1.875 0 -3.078125 0.4375q-1.2031288 0.4375 -1.7187538 1.140625q-0.515625 0.703125 -0.515625 1.625q0 1.078125 0.875 1.734375q0.8750038 0.65625 2.3125038 1.0625q1.453125 0.40625 3.1875 0.8125q1.734375 0.390625 3.46875 0.90625q1.75 0.515625 3.1875 1.40625q1.4375 0.875 2.34375 2.3125q0.90625 1.4375 0.90625 3.640625q0 2.359375 -1.328125 4.328125q-1.3125 1.953125 -3.9375 3.15625q-2.625 1.203125 -6.625 1.203125zm29.082474 -0.484375l0 -4.203125l-0.390625 -0.921875l0 -7.515625q0 -2.0 -1.234375 -3.109375q-1.21875 -1.125 -3.734375 -1.125q-1.71875 0 -3.375 0.546875q-1.65625 0.53125 -2.828125 1.453125l-2.234375 -4.359375q1.765625 -1.25 4.234375 -1.921875q2.484375 -0.6875 5.046875 -0.6875q4.921875 0 7.640625 2.328125q2.71875 2.3125 2.71875 7.234375l0 12.28125l-5.84375 0zm-6.5625 0.3125q-2.515625 0 -4.3125 -0.859375q-1.796875 -0.859375 -2.765625 -2.328125q-0.953125 -1.484375 -0.953125 -3.328125q0 -1.921875 0.9375 -3.359375q0.9375 -1.4375 2.96875 -2.25q2.046875 -0.828125 5.328125 -0.828125l5.71875 0l0 3.640625l-5.03125 0q-2.203125 0 -3.03125 0.71875q-0.8125 0.71875 -0.8125 1.796875q0 1.203125 0.9375 1.90625q0.9375 0.703125 2.578125 0.703125q1.5625 0 2.796875 -0.734375q1.25 -0.75 1.8125 -2.1875l0.953125 2.875q-0.6875 2.078125 -2.484375 3.15625q-1.796875 1.078125 -4.640625 1.078125zm18.039352 -0.3125l0 -29.6875l6.25 0l0 29.6875l-6.25 0zm25.243118 0l0 -4.203125l-0.390625 -0.921875l0 -7.515625q0 -2.0 -1.234375 -3.109375q-1.21875 -1.125 -3.734375 -1.125q-1.71875 0 -3.375 0.546875q-1.65625 0.53125 -2.828125 1.453125l-2.234375 -4.359375q1.765625 -1.25 4.234375 -1.921875q2.484375 -0.6875 5.046875 -0.6875q4.921875 0 7.640625 2.328125q2.71875 2.3125 2.71875 7.234375l0 12.28125l-5.84375 0zm-6.5625 0.3125q-2.515625 0 -4.3125 -0.859375q-1.796875 -0.859375 -2.765625 -2.328125q-0.953125 -1.484375 -0.953125 -3.328125q0 -1.921875 0.9375 -3.359375q0.9375 -1.4375 2.96875 -2.25q2.046875 -0.828125 5.328125 -0.828125l5.71875 0l0 3.640625l-5.03125 0q-2.203125 0 -3.03125 0.71875q-0.8125 0.71875 -0.8125 1.796875q0 1.203125 0.9375 1.90625q0.9375 0.703125 2.578125 0.703125q1.5625 0 2.796875 -0.734375q1.25 -0.75 1.8125 -2.1875l0.953125 2.875q-0.6875 2.078125 -2.484375 3.15625q-1.796875 1.078125 -4.640625 1.078125zm31.117477 -22.15625q2.5625 0 4.578125 1.03125q2.03125 1.015625 3.1875 3.125q1.15625 2.09375 1.15625 5.375l0 12.3125l-6.234375 0l0 -11.359375q0 -2.59375 -1.140625 -3.828125q-1.140625 -1.25 -3.21875 -1.25q-1.484375 0 -2.671875 0.625q-1.171875 0.609375 -1.828125 1.890625q-0.65625 1.28125 -0.65625 3.28125l0 10.640625l-6.25 0l0 -29.6875l6.25 0l0 14.125l-1.40625 -1.796875q1.15625 -2.15625 3.3125 -3.3125q2.171875 -1.171875 4.921875 -1.171875z" fill-rule="nonzero"/><path fill="#990000" d="m500.79465 314.2977q-3.84375 0 -6.671875 -1.59375q-2.8125 -1.609375 -4.328125 -4.6875q-1.515625 -3.078125 -1.515625 -7.609375q0 -4.828125 1.8125 -8.1875q1.828125 -3.359375 5.046875 -5.125q3.21875 -1.765625 7.421875 -1.765625q2.234375 0 4.265625 0.484375q2.046875 0.484375 3.53125 1.4375l-2.40625 4.765625q-1.15625 -0.796875 -2.484375 -1.09375q-1.3125 -0.3125 -2.75 -0.3125q-3.640625 0 -5.765625 2.203125q-2.109375 2.203125 -2.109375 6.515625q0 0.71875 0.015625 1.609375q0.015625 0.875 0.21875 1.75l-1.796875 -1.671875q0.75 -1.5625 1.953125 -2.625q1.203125 -1.0625 2.859375 -1.59375q1.671875 -0.546875 3.671875 -0.546875q2.71875 0 4.875 1.078125q2.15625 1.078125 3.453125 3.046875q1.3125 1.953125 1.3125 4.59375q0 2.84375 -1.421875 4.953125q-1.421875 2.09375 -3.8125 3.234375q-2.375 1.140625 -5.375 1.140625zm-0.359375 -4.84375q1.359375 0 2.421875 -0.5q1.0625 -0.5 1.65625 -1.453125q0.609375 -0.96875 0.609375 -2.203125q0 -1.921875 -1.3125 -3.0625q-1.296875 -1.140625 -3.453125 -1.140625q-1.4375 0 -2.515625 0.546875q-1.078125 0.53125 -1.703125 1.46875q-0.625 0.9375 -0.625 2.1875q0 1.203125 0.59375 2.140625q0.609375 0.9375 1.6875 1.484375q1.078125 0.53125 2.640625 0.53125zm17.3956 4.671875q-1.59375 0 -2.734375 -1.09375q-1.140625 -1.09375 -1.140625 -2.8125q0 -1.71875 1.140625 -2.78125q1.140625 -1.0625 2.734375 -1.0625q1.640625 0 2.765625 1.0625q1.125 1.0625 1.125 2.78125q0 1.71875 -1.125 2.8125q-1.125 1.09375 -2.765625 1.09375zm6.4800415 -6.1875l0 -4.359375l13.203125 -17.765625l6.796875 0l-12.921875 17.765625l-3.15625 -0.921875l22.046875 0l0 5.28125l-25.96875 0zm15.078125 5.875l0 -5.875l0.203125 -5.28125l0 -5.25l6.125 0l0 16.40625l-6.328125 0zm21.608093 0.484375q-2.921875 0 -5.8125 -0.78125q-2.875 -0.78125 -4.875 -2.21875l2.53125 -4.96875q1.59375 1.171875 3.703125 1.859375q2.125 0.671875 4.296875 0.671875q2.4375 0 3.828125 -0.953125q1.40625 -0.96875 1.40625 -2.65625q0 -1.59375 -1.25 -2.515625q-1.234375 -0.921875 -3.984375 -0.921875l-2.96875 0l0 -4.28125l7.796875 -8.84375l0.734375 2.328125l-14.6875 0l0 -5.203125l19.59375 0l0 4.203125l-7.75 8.84375l-3.28125 -1.890625l1.875 0q5.15625 0 7.796875 2.328125q2.640625 2.3125 2.640625 5.953125q0 2.359375 -1.234375 4.421875q-1.234375 2.0625 -3.796875 3.34375q-2.5625 1.28125 -6.5625 1.28125z" fill-rule="nonzero"/><path fill="#990000" d="m727.9509 307.93832l0 -4.359375l13.203125 -17.765625l6.796875 0l-12.921875 17.765625l-3.15625 -0.921875l22.046875 0l0 5.28125l-25.96875 0zm15.078125 5.875l0 -5.875l0.203125 -5.28125l0 -5.25l6.125 0l0 16.40625l-6.328125 0zm12.481812 -5.875l0 -4.359375l13.203125 -17.765625l6.796875 0l-12.921875 17.765625l-3.15625 -0.921875l22.046875 0l0 5.28125l-25.96875 0zm15.078125 5.875l0 -5.875l0.203125 -5.28125l0 -5.25l6.125 0l0 16.40625l-6.328125 0zm22.20813 0l12.484375 -28.0l6.390625 0l12.53125 28.0l-6.8125 0l-10.234375 -24.71875l2.5625 0l-10.28125 24.71875l-6.640625 0zm6.234375 -6.0l1.71875 -4.921875l14.40625 0l1.765625 4.921875l-17.890625 0zm40.358704 6.3125q-2.71875 0 -4.765625 -1.1875q-2.03125 -1.203125 -3.171875 -3.65625q-1.140625 -2.46875 -1.140625 -6.234375q0 -3.796875 1.078125 -6.234375q1.09375 -2.4375 3.125 -3.640625q2.046875 -1.203125 4.875 -1.203125q3.046875 0 5.46875 1.390625q2.421875 1.375 3.828125 3.859375q1.421875 2.46875 1.421875 5.828125q0 3.40625 -1.421875 5.890625q-1.40625 2.46875 -3.828125 3.828125q-2.421875 1.359375 -5.46875 1.359375zm-12.71875 7.453125l0 -29.28125l5.96875 0l0 4.390625l-0.125 6.40625l0.40625 6.359375l0 12.125l-6.25 0zm11.640625 -12.5625q1.5625 0 2.78125 -0.71875q1.21875 -0.71875 1.953125 -2.0625q0.75 -1.34375 0.75 -3.1875q0 -1.875 -0.75 -3.1875q-0.734375 -1.328125 -1.953125 -2.046875q-1.21875 -0.71875 -2.78125 -0.71875q-1.5625 0 -2.796875 0.71875q-1.234375 0.71875 -1.953125 2.046875q-0.71875 1.3125 -0.71875 3.1875q0 1.84375 0.71875 3.1875q0.71875 1.34375 1.953125 2.0625q1.234375 0.71875 2.796875 0.71875zm28.6781 5.109375q-2.71875 0 -4.765625 -1.1875q-2.03125 -1.203125 -3.171875 -3.65625q-1.140625 -2.46875 -1.140625 -6.234375q0 -3.796875 1.078125 -6.234375q1.09375 -2.4375 3.125 -3.640625q2.046875 -1.203125 4.875 -1.203125q3.046875 0 5.46875 1.390625q2.421875 1.375 3.828125 3.859375q1.421875 2.46875 1.421875 5.828125q0 3.40625 -1.421875 5.890625q-1.40625 2.46875 -3.828125 3.828125q-2.421875 1.359375 -5.46875 1.359375zm-12.71875 7.453125l0 -29.28125l5.96875 0l0 4.390625l-0.125 6.40625l0.40625 6.359375l0 12.125l-6.25 0zm11.640625 -12.5625q1.5625 0 2.78125 -0.71875q1.21875 -0.71875 1.953125 -2.0625q0.75 -1.34375 0.75 -3.1875q0 -1.875 -0.75 -3.1875q-0.734375 -1.328125 -1.953125 -2.046875q-1.21875 -0.71875 -2.78125 -0.71875q-1.5625 0 -2.796875 0.71875q-1.234375 0.71875 -1.953125 2.046875q-0.71875 1.3125 -0.71875 3.1875q0 1.84375 0.71875 3.1875q0.71875 1.34375 1.953125 2.0625q1.234375 0.71875 2.796875 0.71875zm23.20935 5.109375q-2.765625 0 -5.3125 -0.65625q-2.53125 -0.65625 -4.015625 -1.65625l2.078125 -4.484375q1.484375 0.921875 3.5 1.5q2.03125 0.578125 3.984375 0.578125q2.15625 0 3.046875 -0.515625q0.90625 -0.515625 0.90625 -1.4375q0 -0.765625 -0.703125 -1.140625q-0.6875 -0.375 -1.859375 -0.578125q-1.15625 -0.203125 -2.53125 -0.40625q-1.375 -0.203125 -2.78125 -0.53125q-1.390625 -0.34375 -2.5625 -1.015625q-1.15625 -0.6875 -1.859375 -1.84375q-0.703125 -1.171875 -0.703125 -3.0q0 -2.046875 1.1875 -3.609375q1.1875 -1.5625 3.421875 -2.453125q2.234375 -0.90625 5.359375 -0.90625q2.203125 0 4.484375 0.484375q2.28125 0.484375 3.796875 1.40625l-2.078125 4.4375q-1.5625 -0.921875 -3.140625 -1.265625q-1.578125 -0.34375 -3.0625 -0.34375q-2.078125 0 -3.046875 0.5625q-0.953125 0.5625 -0.953125 1.4375q0 0.8125 0.703125 1.21875q0.703125 0.390625 1.859375 0.625q1.15625 0.234375 2.53125 0.421875q1.390625 0.171875 2.78125 0.546875q1.40625 0.359375 2.546875 1.015625q1.140625 0.65625 1.859375 1.796875q0.71875 1.140625 0.71875 2.984375q0 2.0 -1.203125 3.546875q-1.203125 1.53125 -3.46875 2.40625q-2.25 0.875 -5.484375 0.875z" fill-rule="nonzero"/><path fill="#660000" d="m58.029034 359.8133l0 -28.0l5.375 0l16.515629 20.15625l-2.609375 0l0 -20.15625l6.40625 0l0 28.0l-5.3125 0l-16.562504 -20.15625l2.5937538 0l0 20.15625l-6.406254 0zm40.960606 0.3125q-2.671875 0 -4.78125 -1.03125q-2.09375 -1.046875 -3.25 -3.1875q-1.15625 -2.140625 -1.15625 -5.453125l0 -12.15625l6.234375 0l0 11.234375q0 2.6875 1.140625 3.953125q1.140625 1.25 3.21875 1.25q1.4375 0 2.5625 -0.609375q1.125 -0.625 1.75 -1.921875q0.640625 -1.3125 0.640625 -3.265625l0 -10.640625l6.25 0l0 21.515625l-5.921875 0l0 -5.921875l1.078125 1.71875q-1.078125 2.25 -3.1875 3.390625q-2.09375 1.125 -4.578125 1.125zm31.47998 -22.15625q2.5625 0 4.578125 1.03125q2.03125 1.015625 3.1875 3.125q1.15625 2.09375 1.15625 5.375l0 12.3125l-6.234375 0l0 -11.359375q0 -2.59375 -1.140625 -3.828125q-1.140625 -1.25 -3.21875 -1.25q-1.484375 0 -2.671875 0.625q-1.171875 0.609375 -1.828125 1.890625q-0.65625 1.28125 -0.65625 3.28125l0 10.640625l-6.25 0l0 -21.515625l5.96875 0l0 5.953125l-1.125 -1.796875q1.15625 -2.15625 3.3125 -3.3125q2.171875 -1.171875 4.921875 -1.171875zm25.409348 22.15625q-3.6875 0 -6.46875 -1.4375q-2.78125 -1.4375 -4.296875 -3.9375q-1.515625 -2.5 -1.515625 -5.703125q0 -3.234375 1.5 -5.734375q1.5 -2.5 4.09375 -3.921875q2.609375 -1.421875 5.890625 -1.421875q3.15625 0 5.6875 1.34375q2.546875 1.34375 4.015625 3.84375q1.484375 2.5 1.484375 5.96875q0 0.375 -0.046875 0.828125q-0.03125 0.453125 -0.0625 0.859375l-17.484375 0l0 -3.640625l14.203125 0l-2.40625 1.078125q0 -1.671875 -0.6875 -2.90625q-0.671875 -1.25 -1.875 -1.953125q-1.1875 -0.703125 -2.796875 -0.703125q-1.59375 0 -2.8125 0.703125q-1.21875 0.703125 -1.90625 1.96875q-0.671875 1.25 -0.671875 2.96875l0 0.96875q0 1.75 0.765625 3.09375q0.78125 1.34375 2.203125 2.046875q1.421875 0.6875 3.34375 0.6875q1.71875 0 3.015625 -0.515625q1.3125 -0.515625 2.390625 -1.5625l3.3125 3.609375q-1.484375 1.671875 -3.71875 2.578125q-2.234375 0.890625 -5.15625 0.890625zm12.883728 -0.3125l0 -3.765625l12.71875 -15.03125l1.078125 2.078125l-13.515625 0l0 -4.796875l18.546875 0l0 3.75l-12.71875 15.046875l-1.109375 -2.078125l14.1875 0l0 4.796875l-19.1875 0z" fill-rule="nonzero"/><path fill="#660000" d="m500.79465 360.29767q-3.84375 0 -6.671875 -1.59375q-2.8125 -1.609375 -4.328125 -4.6875q-1.515625 -3.078125 -1.515625 -7.609375q0 -4.828125 1.8125 -8.1875q1.828125 -3.359375 5.046875 -5.125q3.21875 -1.765625 7.421875 -1.765625q2.234375 0 4.265625 0.484375q2.046875 0.484375 3.53125 1.4375l-2.40625 4.765625q-1.15625 -0.796875 -2.484375 -1.09375q-1.3125 -0.3125 -2.75 -0.3125q-3.640625 0 -5.765625 2.203125q-2.109375 2.203125 -2.109375 6.515625q0 0.71875 0.015625 1.609375q0.015625 0.875 0.21875 1.75l-1.796875 -1.671875q0.75 -1.5625 1.953125 -2.625q1.203125 -1.0625 2.859375 -1.59375q1.671875 -0.546875 3.671875 -0.546875q2.71875 0 4.875 1.078125q2.15625 1.078125 3.453125 3.046875q1.3125 1.953125 1.3125 4.59375q0 2.84375 -1.421875 4.953125q-1.421875 2.09375 -3.8125 3.234375q-2.375 1.140625 -5.375 1.140625zm-0.359375 -4.84375q1.359375 0 2.421875 -0.5q1.0625 -0.5 1.65625 -1.453125q0.609375 -0.96875 0.609375 -2.203125q0 -1.921875 -1.3125 -3.0625q-1.296875 -1.140625 -3.453125 -1.140625q-1.4375 0 -2.515625 0.546875q-1.078125 0.53125 -1.703125 1.46875q-0.625 0.9375 -0.625 2.1875q0 1.203125 0.59375 2.140625q0.609375 0.9375 1.6875 1.484375q1.078125 0.53125 2.640625 0.53125zm17.3956 4.671875q-1.59375 0 -2.734375 -1.09375q-1.140625 -1.09375 -1.140625 -2.8125q0 -1.71875 1.140625 -2.78125q1.140625 -1.0625 2.734375 -1.0625q1.640625 0 2.765625 1.0625q1.125 1.0625 1.125 2.78125q0 1.71875 -1.125 2.8125q-1.125 1.09375 -2.765625 1.09375zm16.286255 0.171875q-2.921875 0 -5.8125 -0.78125q-2.875 -0.78125 -4.875 -2.21875l2.53125 -4.96875q1.59375 1.171875 3.703125 1.859375q2.125 0.671875 4.296875 0.671875q2.4375 0 3.828125 -0.953125q1.40625 -0.96875 1.40625 -2.65625q0 -1.59375 -1.25 -2.515625q-1.234375 -0.921875 -3.984375 -0.921875l-2.96875 0l0 -4.28125l7.796875 -8.84375l0.734375 2.328125l-14.6875 0l0 -5.203125l19.59375 0l0 4.203125l-7.75 8.84375l-3.28125 -1.890625l1.875 0q5.15625 0 7.796875 2.328125q2.640625 2.3125 2.640625 5.953125q0 2.359375 -1.234375 4.421875q-1.234375 2.0625 -3.796875 3.34375q-2.5625 1.28125 -6.5625 1.28125zm26.195618 0q-3.515625 0 -6.15625 -1.0625q-2.640625 -1.0625 -4.125 -3.0q-1.46875 -1.9375 -1.46875 -4.546875q0 -2.59375 1.453125 -4.40625q1.453125 -1.828125 4.09375 -2.765625q2.640625 -0.9375 6.203125 -0.9375q3.609375 0 6.265625 0.9375q2.65625 0.9375 4.109375 2.765625q1.46875 1.8125 1.46875 4.40625q0 2.609375 -1.484375 4.546875q-1.46875 1.9375 -4.140625 3.0q-2.65625 1.0625 -6.21875 1.0625zm0 -4.765625q2.4375 0 3.859375 -1.078125q1.421875 -1.078125 1.421875 -2.953125q0 -1.890625 -1.421875 -2.9375q-1.421875 -1.0625 -3.859375 -1.0625q-2.390625 0 -3.796875 1.0625q-1.40625 1.046875 -1.40625 2.9375q0 1.875 1.40625 2.953125q1.40625 1.078125 3.796875 1.078125zm0 -8.671875q-3.234375 0 -5.65625 -0.875q-2.421875 -0.890625 -3.765625 -2.59375q-1.328125 -1.703125 -1.328125 -4.0625q0 -2.46875 1.359375 -4.25q1.359375 -1.78125 3.796875 -2.765625q2.4375 -0.984375 5.59375 -0.984375q3.25 0 5.65625 0.984375q2.421875 0.984375 3.796875 2.765625q1.390625 1.78125 1.390625 4.25q0 2.359375 -1.34375 4.0625q-1.34375 1.703125 -3.78125 2.59375q-2.4375 0.875 -5.71875 0.875zm0 -3.8125q2.046875 0 3.21875 -0.90625q1.1875 -0.921875 1.1875 -2.53125q0 -1.671875 -1.21875 -2.59375q-1.21875 -0.921875 -3.1875 -0.921875q-1.921875 0 -3.125 0.921875q-1.1875 0.921875 -1.1875 2.59375q0 1.609375 1.15625 2.53125q1.15625 0.90625 3.15625 0.90625z" fill-rule="nonzero"/><path fill="#660000" d="m737.7947 360.29767q-2.921875 0 -5.78125 -0.78125q-2.859375 -0.78125 -4.890625 -2.21875l2.546875 -4.96875q1.609375 1.171875 3.703125 1.859375q2.109375 0.671875 4.265625 0.671875q2.4375 0 3.828125 -0.953125q1.40625 -0.96875 1.40625 -2.6875q0 -1.09375 -0.5625 -1.921875q-0.546875 -0.84375 -1.96875 -1.28125q-1.421875 -0.4375 -3.984375 -0.4375l-7.15625 0l1.4375 -15.765625l17.078125 0l0 5.203125l-14.765625 0l3.359375 -2.96875l-1.0 11.25l-3.359375 -2.96875l5.921875 0q4.15625 0 6.703125 1.140625q2.546875 1.140625 3.703125 3.109375q1.15625 1.953125 1.15625 4.4375q0 2.484375 -1.25 4.578125q-1.234375 2.09375 -3.8125 3.40625q-2.578125 1.296875 -6.578125 1.296875zm23.162476 0q-2.921875 0 -5.8125 -0.78125q-2.875 -0.78125 -4.875 -2.21875l2.53125 -4.96875q1.59375 1.171875 3.703125 1.859375q2.125 0.671875 4.296875 0.671875q2.4375 0 3.828125 -0.953125q1.40625 -0.96875 1.40625 -2.65625q0 -1.59375 -1.25 -2.515625q-1.234375 -0.921875 -3.984375 -0.921875l-2.96875 0l0 -4.28125l7.796875 -8.84375l0.734375 2.328125l-14.6875 0l0 -5.203125l19.59375 0l0 4.203125l-7.75 8.84375l-3.28125 -1.890625l1.875 0q5.15625 0 7.796875 2.328125q2.640625 2.3125 2.640625 5.953125q0 2.359375 -1.234375 4.421875q-1.234375 2.0625 -3.796875 3.34375q-2.5625 1.28125 -6.5625 1.28125zm24.0 -0.484375l12.484375 -28.0l6.390625 0l12.53125 28.0l-6.8125 0l-10.234375 -24.71875l2.5625 0l-10.28125 24.71875l-6.640625 0zm6.234375 -6.0l1.71875 -4.921875l14.40625 0l1.765625 4.921875l-17.890625 0zm40.358704 6.3125q-2.71875 0 -4.765625 -1.1875q-2.03125 -1.203125 -3.171875 -3.65625q-1.140625 -2.46875 -1.140625 -6.234375q0 -3.796875 1.078125 -6.234375q1.09375 -2.4375 3.125 -3.640625q2.046875 -1.203125 4.875 -1.203125q3.046875 0 5.46875 1.390625q2.421875 1.375 3.828125 3.859375q1.421875 2.46875 1.421875 5.828125q0 3.40625 -1.421875 5.890625q-1.40625 2.46875 -3.828125 3.828125q-2.421875 1.359375 -5.46875 1.359375zm-12.71875 7.453125l0 -29.28125l5.96875 0l0 4.390625l-0.125 6.40625l0.40625 6.359375l0 12.125l-6.25 0zm11.640625 -12.5625q1.5625 0 2.78125 -0.71875q1.21875 -0.71875 1.953125 -2.0625q0.75 -1.34375 0.75 -3.1875q0 -1.875 -0.75 -3.1875q-0.734375 -1.328125 -1.953125 -2.046875q-1.21875 -0.71875 -2.78125 -0.71875q-1.5625 0 -2.796875 0.71875q-1.234375 0.71875 -1.953125 2.046875q-0.71875 1.3125 -0.71875 3.1875q0 1.84375 0.71875 3.1875q0.71875 1.34375 1.953125 2.0625q1.234375 0.71875 2.796875 0.71875zm28.6781 5.109375q-2.71875 0 -4.765625 -1.1875q-2.03125 -1.203125 -3.171875 -3.65625q-1.140625 -2.46875 -1.140625 -6.234375q0 -3.796875 1.078125 -6.234375q1.09375 -2.4375 3.125 -3.640625q2.046875 -1.203125 4.875 -1.203125q3.046875 0 5.46875 1.390625q2.421875 1.375 3.828125 3.859375q1.421875 2.46875 1.421875 5.828125q0 3.40625 -1.421875 5.890625q-1.40625 2.46875 -3.828125 3.828125q-2.421875 1.359375 -5.46875 1.359375zm-12.71875 7.453125l0 -29.28125l5.96875 0l0 4.390625l-0.125 6.40625l0.40625 6.359375l0 12.125l-6.25 0zm11.640625 -12.5625q1.5625 0 2.78125 -0.71875q1.21875 -0.71875 1.953125 -2.0625q0.75 -1.34375 0.75 -3.1875q0 -1.875 -0.75 -3.1875q-0.734375 -1.328125 -1.953125 -2.046875q-1.21875 -0.71875 -2.78125 -0.71875q-1.5625 0 -2.796875 0.71875q-1.234375 0.71875 -1.953125 2.046875q-0.71875 1.3125 -0.71875 3.1875q0 1.84375 0.71875 3.1875q0.71875 1.34375 1.953125 2.0625q1.234375 0.71875 2.796875 0.71875zm23.20935 5.109375q-2.765625 0 -5.3125 -0.65625q-2.53125 -0.65625 -4.015625 -1.65625l2.078125 -4.484375q1.484375 0.921875 3.5 1.5q2.03125 0.578125 3.984375 0.578125q2.15625 0 3.046875 -0.515625q0.90625 -0.515625 0.90625 -1.4375q0 -0.765625 -0.703125 -1.140625q-0.6875 -0.375 -1.859375 -0.578125q-1.15625 -0.203125 -2.53125 -0.40625q-1.375 -0.203125 -2.78125 -0.53125q-1.390625 -0.34375 -2.5625 -1.015625q-1.15625 -0.6875 -1.859375 -1.84375q-0.703125 -1.171875 -0.703125 -3.0q0 -2.046875 1.1875 -3.609375q1.1875 -1.5625 3.421875 -2.453125q2.234375 -0.90625 5.359375 -0.90625q2.203125 0 4.484375 0.484375q2.28125 0.484375 3.796875 1.40625l-2.078125 4.4375q-1.5625 -0.921875 -3.140625 -1.265625q-1.578125 -0.34375 -3.0625 -0.34375q-2.078125 0 -3.046875 0.5625q-0.953125 0.5625 -0.953125 1.4375q0 0.8125 0.703125 1.21875q0.703125 0.390625 1.859375 0.625q1.15625 0.234375 2.53125 0.421875q1.390625 0.171875 2.78125 0.546875q1.40625 0.359375 2.546875 1.015625q1.140625 0.65625 1.859375 1.796875q0.71875 1.140625 0.71875 2.984375q0 2.0 -1.203125 3.546875q-1.203125 1.53125 -3.46875 2.40625q-2.25 0.875 -5.484375 0.875z" fill-rule="nonzero"/><path fill="#000000" d="m71.56029 406.29767q-3.328125 0 -6.109375 -1.0625q-2.7812538 -1.0625 -4.843754 -3.015625q-2.046875 -1.96875 -3.1875 -4.609375q-1.140625 -2.640625 -1.140625 -5.796875q0 -3.15625 1.140625 -5.796875q1.140625 -2.640625 3.21875 -4.59375q2.078125 -1.96875 4.875004 -3.03125q2.796875 -1.0625 6.15625 -1.0625q3.734375 0 6.703125 1.25q2.984375 1.234375 5.03125 3.59375l-4.171875 3.84375q-1.515625 -1.609375 -3.3125 -2.375q-1.796875 -0.78125 -3.921875 -0.78125q-2.046875 0 -3.734375 0.640625q-1.671875 0.625 -2.890625 1.828125q-1.21875 1.203125 -1.8750038 2.84375q-0.65625 1.640625 -0.65625 3.640625q0 1.953125 0.65625 3.59375q0.6562538 1.640625 1.8750038 2.875q1.21875 1.21875 2.875 1.859375q1.671875 0.625 3.671875 0.625q1.921875 0 3.734375 -0.609375q1.828125 -0.625 3.546875 -2.109375l3.671875 4.6875q-2.28125 1.71875 -5.296875 2.640625q-3.015625 0.921875 -6.015625 0.921875zm5.390625 -4.40625l0 -10.515625l5.921875 0l0 11.359375l-5.921875 -0.84375zm24.683716 3.921875l0 -4.203125l-0.390625 -0.921875l0 -7.515625q0 -2.0 -1.234375 -3.109375q-1.21875 -1.125 -3.734375 -1.125q-1.71875 0 -3.375 0.546875q-1.65625 0.53125 -2.828125 1.453125l-2.234375 -4.359375q1.765625 -1.25 4.234375 -1.921875q2.484375 -0.6875 5.046875 -0.6875q4.921875 0 7.640625 2.328125q2.71875 2.3125 2.71875 7.234375l0 12.28125l-5.84375 0zm-6.5625 0.3125q-2.515625 0 -4.3125 -0.859375q-1.796875 -0.859375 -2.765625 -2.328125q-0.953125 -1.484375 -0.953125 -3.328125q0 -1.921875 0.9375 -3.359375q0.9375 -1.4375 2.96875 -2.25q2.046875 -0.828125 5.328125 -0.828125l5.71875 0l0 3.640625l-5.03125 0q-2.203125 0 -3.03125 0.71875q-0.8125 0.71875 -0.8125 1.796875q0 1.203125 0.9375 1.90625q0.9375 0.703125 2.578125 0.703125q1.5625 0 2.796875 -0.734375q1.25 -0.75 1.8125 -2.1875l0.953125 2.875q-0.6875 2.078125 -2.484375 3.15625q-1.796875 1.078125 -4.640625 1.078125zm23.211227 -4.71875l0.15625 -7.59375l10.03125 -9.515625l7.453125 0l-9.640625 9.796875l-3.25 2.640625l-4.75 4.671875zm-5.171875 4.40625l0 -29.6875l6.25 0l0 29.6875l-6.25 0zm16.046875 0l-7.28125 -9.046875l3.921875 -4.828125l10.921875 13.875l-7.5625 0zm22.91185 0.3125q-2.71875 0 -4.765625 -1.1875q-2.03125 -1.203125 -3.171875 -3.65625q-1.140625 -2.46875 -1.140625 -6.234375q0 -3.796875 1.078125 -6.234375q1.09375 -2.4375 3.125 -3.640625q2.046875 -1.203125 4.875 -1.203125q3.046875 0 5.46875 1.390625q2.421875 1.375 3.828125 3.859375q1.421875 2.46875 1.421875 5.828125q0 3.40625 -1.421875 5.890625q-1.40625 2.46875 -3.828125 3.828125q-2.421875 1.359375 -5.46875 1.359375zm-12.71875 7.453125l0 -29.28125l5.96875 0l0 4.390625l-0.125 6.40625l0.40625 6.359375l0 12.125l-6.25 0zm11.640625 -12.5625q1.5625 0 2.78125 -0.71875q1.21875 -0.71875 1.953125 -2.0625q0.75 -1.34375 0.75 -3.1875q0 -1.875 -0.75 -3.1875q-0.734375 -1.328125 -1.953125 -2.046875q-1.21875 -0.71875 -2.78125 -0.71875q-1.5625 0 -2.796875 0.71875q-1.234375 0.71875 -1.953125 2.046875q-0.71875 1.3125 -0.71875 3.1875q0 1.84375 0.71875 3.1875q0.71875 1.34375 1.953125 2.0625q1.234375 0.71875 2.796875 0.71875zm26.20935 5.109375q-3.4375 0 -6.109375 -1.4375q-2.65625 -1.4375 -4.203125 -3.9375q-1.53125 -2.5 -1.53125 -5.703125q0 -3.234375 1.53125 -5.734375q1.546875 -2.5 4.203125 -3.921875q2.671875 -1.421875 6.109375 -1.421875q3.390625 0 6.0625 1.421875q2.6875 1.421875 4.203125 3.90625q1.53125 2.46875 1.53125 5.75q0 3.203125 -1.53125 5.703125q-1.515625 2.5 -4.203125 3.9375q-2.671875 1.4375 -6.0625 1.4375zm0 -5.109375q1.5625 0 2.796875 -0.71875q1.234375 -0.71875 1.953125 -2.0625q0.71875 -1.34375 0.71875 -3.1875q0 -1.875 -0.71875 -3.1875q-0.71875 -1.328125 -1.953125 -2.046875q-1.234375 -0.71875 -2.796875 -0.71875q-1.5625 0 -2.8125 0.71875q-1.234375 0.71875 -1.984375 2.046875q-0.734375 1.3125 -0.734375 3.1875q0 1.84375 0.734375 3.1875q0.75 1.34375 1.984375 2.0625q1.25 0.71875 2.8125 0.71875z" fill-rule="nonzero"/><path fill="#000000" d="m500.79465 406.29767q-3.84375 0 -6.671875 -1.59375q-2.8125 -1.609375 -4.328125 -4.6875q-1.515625 -3.078125 -1.515625 -7.609375q0 -4.828125 1.8125 -8.1875q1.828125 -3.359375 5.046875 -5.125q3.21875 -1.765625 7.421875 -1.765625q2.234375 0 4.265625 0.484375q2.046875 0.484375 3.53125 1.4375l-2.40625 4.765625q-1.15625 -0.796875 -2.484375 -1.09375q-1.3125 -0.3125 -2.75 -0.3125q-3.640625 0 -5.765625 2.203125q-2.109375 2.203125 -2.109375 6.515625q0 0.71875 0.015625 1.609375q0.015625 0.875 0.21875 1.75l-1.796875 -1.671875q0.75 -1.5625 1.953125 -2.625q1.203125 -1.0625 2.859375 -1.59375q1.671875 -0.546875 3.671875 -0.546875q2.71875 0 4.875 1.078125q2.15625 1.078125 3.453125 3.046875q1.3125 1.953125 1.3125 4.59375q0 2.84375 -1.421875 4.953125q-1.421875 2.09375 -3.8125 3.234375q-2.375 1.140625 -5.375 1.140625zm-0.359375 -4.84375q1.359375 0 2.421875 -0.5q1.0625 -0.5 1.65625 -1.453125q0.609375 -0.96875 0.609375 -2.203125q0 -1.921875 -1.3125 -3.0625q-1.296875 -1.140625 -3.453125 -1.140625q-1.4375 0 -2.515625 0.546875q-1.078125 0.53125 -1.703125 1.46875q-0.625 0.9375 -0.625 2.1875q0 1.203125 0.59375 2.140625q0.609375 0.9375 1.6875 1.484375q1.078125 0.53125 2.640625 0.53125zm17.3956 4.671875q-1.59375 0 -2.734375 -1.09375q-1.140625 -1.09375 -1.140625 -2.8125q0 -1.71875 1.140625 -2.78125q1.140625 -1.0625 2.734375 -1.0625q1.640625 0 2.765625 1.0625q1.125 1.0625 1.125 2.78125q0 1.71875 -1.125 2.8125q-1.125 1.09375 -2.765625 1.09375zm6.95813 -0.3125l0 -4.203125l10.8125 -10.203125q1.28125 -1.15625 1.875 -2.078125q0.59375 -0.921875 0.8125 -1.671875q0.234375 -0.765625 0.234375 -1.40625q0 -1.671875 -1.140625 -2.578125q-1.140625 -0.90625 -3.34375 -0.90625q-1.765625 0 -3.265625 0.6875q-1.5 0.671875 -2.53125 2.125l-4.71875 -3.046875q1.59375 -2.40625 4.46875 -3.796875q2.890625 -1.40625 6.640625 -1.40625q3.125 0 5.453125 1.03125q2.34375 1.015625 3.640625 2.859375q1.3125 1.828125 1.3125 4.390625q0 1.359375 -0.34375 2.703125q-0.34375 1.34375 -1.359375 2.828125q-1.015625 1.46875 -2.984375 3.3125l-8.953125 8.4375l-1.234375 -2.359375l15.796875 0l0 5.28125l-21.171875 0zm33.693726 -28.484375q3.875 0 6.671875 1.609375q2.796875 1.59375 4.3125 4.65625q1.53125 3.0625 1.53125 7.625q0 4.828125 -1.828125 8.1875q-1.8125 3.359375 -5.015625 5.125q-3.203125 1.765625 -7.4375 1.765625q-2.203125 0 -4.25 -0.484375q-2.03125 -0.484375 -3.515625 -1.4375l2.40625 -4.765625q1.15625 0.796875 2.46875 1.109375q1.328125 0.296875 2.765625 0.296875q3.609375 0 5.75 -2.203125q2.140625 -2.203125 2.140625 -6.515625q0 -0.71875 -0.046875 -1.59375q-0.046875 -0.890625 -0.203125 -1.765625l1.765625 1.671875q-0.6875 1.5625 -1.921875 2.625q-1.234375 1.0625 -2.875 1.609375q-1.640625 0.53125 -3.6875 0.53125q-2.671875 0 -4.859375 -1.078125q-2.171875 -1.078125 -3.484375 -3.03125q-1.296875 -1.96875 -1.296875 -4.609375q0 -2.890625 1.421875 -4.96875q1.421875 -2.078125 3.84375 -3.21875q2.421875 -1.140625 5.34375 -1.140625zm0.390625 4.84375q-1.390625 0 -2.4375 0.5q-1.046875 0.5 -1.640625 1.4375q-0.59375 0.9375 -0.59375 2.21875q0 1.921875 1.296875 3.0625q1.296875 1.140625 3.453125 1.140625q1.40625 0 2.5 -0.53125q1.109375 -0.546875 1.703125 -1.5q0.609375 -0.96875 0.609375 -2.171875q0 -1.203125 -0.59375 -2.140625q-0.578125 -0.9375 -1.65625 -1.46875q-1.078125 -0.546875 -2.640625 -0.546875z" fill-rule="nonzero"/><path fill="#000000" d="m737.7947 406.29767q-2.921875 0 -5.78125 -0.78125q-2.859375 -0.78125 -4.890625 -2.21875l2.546875 -4.96875q1.609375 1.171875 3.703125 1.859375q2.109375 0.671875 4.265625 0.671875q2.4375 0 3.828125 -0.953125q1.40625 -0.96875 1.40625 -2.6875q0 -1.09375 -0.5625 -1.921875q-0.546875 -0.84375 -1.96875 -1.28125q-1.421875 -0.4375 -3.984375 -0.4375l-7.15625 0l1.4375 -15.765625l17.078125 0l0 5.203125l-14.765625 0l3.359375 -2.96875l-1.0 11.25l-3.359375 -2.96875l5.921875 0q4.15625 0 6.703125 1.140625q2.546875 1.140625 3.703125 3.109375q1.15625 1.953125 1.15625 4.4375q0 2.484375 -1.25 4.578125q-1.234375 2.09375 -3.8125 3.40625q-2.578125 1.296875 -6.578125 1.296875zm13.834351 -0.484375l0 -4.203125l10.8125 -10.203125q1.28125 -1.15625 1.875 -2.078125q0.59375 -0.921875 0.8125 -1.671875q0.234375 -0.765625 0.234375 -1.40625q0 -1.671875 -1.140625 -2.578125q-1.140625 -0.90625 -3.34375 -0.90625q-1.765625 0 -3.265625 0.6875q-1.5 0.671875 -2.53125 2.125l-4.71875 -3.046875q1.59375 -2.40625 4.46875 -3.796875q2.890625 -1.40625 6.640625 -1.40625q3.125 0 5.453125 1.03125q2.34375 1.015625 3.640625 2.859375q1.3125 1.828125 1.3125 4.390625q0 1.359375 -0.34375 2.703125q-0.34375 1.34375 -1.359375 2.828125q-1.015625 1.46875 -2.984375 3.3125l-8.953125 8.4375l-1.234375 -2.359375l15.796875 0l0 5.28125l-21.171875 0zm33.248108 0l12.484375 -28.0l6.390625 0l12.53125 28.0l-6.8125 0l-10.234375 -24.71875l2.5625 0l-10.28125 24.71875l-6.640625 0zm6.234375 -6.0l1.71875 -4.921875l14.40625 0l1.765625 4.921875l-17.890625 0zm40.358704 6.3125q-2.71875 0 -4.765625 -1.1875q-2.03125 -1.203125 -3.171875 -3.65625q-1.140625 -2.46875 -1.140625 -6.234375q0 -3.796875 1.078125 -6.234375q1.09375 -2.4375 3.125 -3.640625q2.046875 -1.203125 4.875 -1.203125q3.046875 0 5.46875 1.390625q2.421875 1.375 3.828125 3.859375q1.421875 2.46875 1.421875 5.828125q0 3.40625 -1.421875 5.890625q-1.40625 2.46875 -3.828125 3.828125q-2.421875 1.359375 -5.46875 1.359375zm-12.71875 7.453125l0 -29.28125l5.96875 0l0 4.390625l-0.125 6.40625l0.40625 6.359375l0 12.125l-6.25 0zm11.640625 -12.5625q1.5625 0 2.78125 -0.71875q1.21875 -0.71875 1.953125 -2.0625q0.75 -1.34375 0.75 -3.1875q0 -1.875 -0.75 -3.1875q-0.734375 -1.328125 -1.953125 -2.046875q-1.21875 -0.71875 -2.78125 -0.71875q-1.5625 0 -2.796875 0.71875q-1.234375 0.71875 -1.953125 2.046875q-0.71875 1.3125 -0.71875 3.1875q0 1.84375 0.71875 3.1875q0.71875 1.34375 1.953125 2.0625q1.234375 0.71875 2.796875 0.71875zm28.6781 5.109375q-2.71875 0 -4.765625 -1.1875q-2.03125 -1.203125 -3.171875 -3.65625q-1.140625 -2.46875 -1.140625 -6.234375q0 -3.796875 1.078125 -6.234375q1.09375 -2.4375 3.125 -3.640625q2.046875 -1.203125 4.875 -1.203125q3.046875 0 5.46875 1.390625q2.421875 1.375 3.828125 3.859375q1.421875 2.46875 1.421875 5.828125q0 3.40625 -1.421875 5.890625q-1.40625 2.46875 -3.828125 3.828125q-2.421875 1.359375 -5.46875 1.359375zm-12.71875 7.453125l0 -29.28125l5.96875 0l0 4.390625l-0.125 6.40625l0.40625 6.359375l0 12.125l-6.25 0zm11.640625 -12.5625q1.5625 0 2.78125 -0.71875q1.21875 -0.71875 1.953125 -2.0625q0.75 -1.34375 0.75 -3.1875q0 -1.875 -0.75 -3.1875q-0.734375 -1.328125 -1.953125 -2.046875q-1.21875 -0.71875 -2.78125 -0.71875q-1.5625 0 -2.796875 0.71875q-1.234375 0.71875 -1.953125 2.046875q-0.71875 1.3125 -0.71875 3.1875q0 1.84375 0.71875 3.1875q0.71875 1.34375 1.953125 2.0625q1.234375 0.71875 2.796875 0.71875zm23.20935 5.109375q-2.765625 0 -5.3125 -0.65625q-2.53125 -0.65625 -4.015625 -1.65625l2.078125 -4.484375q1.484375 0.921875 3.5 1.5q2.03125 0.578125 3.984375 0.578125q2.15625 0 3.046875 -0.515625q0.90625 -0.515625 0.90625 -1.4375q0 -0.765625 -0.703125 -1.140625q-0.6875 -0.375 -1.859375 -0.578125q-1.15625 -0.203125 -2.53125 -0.40625q-1.375 -0.203125 -2.78125 -0.53125q-1.390625 -0.34375 -2.5625 -1.015625q-1.15625 -0.6875 -1.859375 -1.84375q-0.703125 -1.171875 -0.703125 -3.0q0 -2.046875 1.1875 -3.609375q1.1875 -1.5625 3.421875 -2.453125q2.234375 -0.90625 5.359375 -0.90625q2.203125 0 4.484375 0.484375q2.28125 0.484375 3.796875 1.40625l-2.078125 4.4375q-1.5625 -0.921875 -3.140625 -1.265625q-1.578125 -0.34375 -3.0625 -0.34375q-2.078125 0 -3.046875 0.5625q-0.953125 0.5625 -0.953125 1.4375q0 0.8125 0.703125 1.21875q0.703125 0.390625 1.859375 0.625q1.15625 0.234375 2.53125 0.421875q1.390625 0.171875 2.78125 0.546875q1.40625 0.359375 2.546875 1.015625q1.140625 0.65625 1.859375 1.796875q0.71875 1.140625 0.71875 2.984375q0 2.0 -1.203125 3.546875q-1.203125 1.53125 -3.46875 2.40625q-2.25 0.875 -5.484375 0.875z" fill-rule="nonzero"/></g></svg>